<svg xmlns="http://www.w3.org/2000/svg" viewBox="0 0 64 64">
  <defs><linearGradient id="g" x1="0" y1="0" x2="0" y2="1">
    <stop offset="0" stop-color="#a78bfa"/><stop offset="1" stop-color="#7c3aed"/>
  </linearGradient></defs>
  <rect width="64" height="64" rx="16" fill="url(#g)"/>
  <!-- vlam -->
  <path d="M32 50 C 28 46, 28 42, 32 38 C 36 42, 36 46, 32 50 Z" fill="#fbbf24"/>
  <path d="M32 47 C 30 44.5, 30 42.5, 32 40.5 C 34 42.5, 34 44.5, 32 47 Z" fill="#f97316"/>
  <!-- vinne -->
  <path d="M24 34 L18 44 L24 41 Z" fill="#6d28d9"/>
  <path d="M40 34 L46 44 L40 41 Z" fill="#6d28d9"/>
  <!-- liggaam + neus -->
  <path d="M32 12 C 39 19, 41 28, 41 36 L 41 41 L 23 41 L 23 36 C 23 28, 25 19, 32 12 Z" fill="#ffffff"/>
  <!-- venster -->
  <circle cx="32" cy="27" r="5" fill="#a78bfa"/>
  <circle cx="32" cy="27" r="5" fill="none" stroke="#7c3aed" stroke-width="1.6"/>
</svg>
